# xmcd
#
# Track frame offsets:
#	150
#	17244
#	36254
#	50742
#	64317
#	83442
#	108942
#	129492
#	142242
#	162257
#	181307
#	198257
#	214607
#	231257
#	245657
#	252607
#	264632
#	279405
#	300167
#	321638
#
# Disc length: 4472 seconds
#
# Revision: 1
# Processed by: cddbd v1.4PL0 Copyright (c) Steve Scherf et al.
# Submitted via: audiograbber 1.80
#
DISCID=2b117614
DTITLE=Joan Baez - Live in Europe
DYEAR=1900
DGENRE=
TTITLE0=The Boxer
TTITLE1=Gracias a la vida (Here's to life)
TTITLE2=Dont' cry for me Argentina
TTITLE3=Farewell Angelina
TTITLE4=Warriors Of The Sun
TTITLE5=A Hard Rains' gonna Fall
TTITLE6=Ladi Di and I
TTITLE7=A Tous Les enfants
TTITLE8=Prende un Enfant
TTITLE9=(For The) Children of the eighties
TTITLE10=The Love Inside
TTITLE11=Me and Bobby McGee
TTITLE12=No Woman No Cry
TTITLE13=Imagine
TTITLE14=Jaria Hamuda
TTITLE15=Here's To you
TTITLE16=The land of thousand Dances
TTITLE17=Diamond and Rush
TTITLE18=For Sasha
TTITLE19=Blowin' in the wind
EXTD=
EXTT0=
EXTT1=
EXTT2=
EXTT3=
EXTT4=
EXTT5=
EXTT6=
EXTT7=
EXTT8=
EXTT9=
EXTT10=
EXTT11=
EXTT12=
EXTT13=
EXTT14=
EXTT15=
EXTT16=
EXTT17=
EXTT18=
EXTT19=
PLAYORDER=
